<?xml version="1.0" encoding="UTF-8" standalone="no"?>
<svg
   xmlns:dc="http://purl.org/dc/elements/1.1/"
   xmlns:cc="http://creativecommons.org/ns#"
   xmlns:rdf="http://www.w3.org/1999/02/22-rdf-syntax-ns#"
   xmlns:svg="http://www.w3.org/2000/svg"
   xmlns="http://www.w3.org/2000/svg"
   xmlns:sodipodi="http://sodipodi.sourceforge.net/DTD/sodipodi-0.dtd"
   xmlns:inkscape="http://www.inkscape.org/namespaces/inkscape"
   width="186.95709mm"
   height="24.795652mm"
   viewBox="0 0 186.95709 24.795653"
   version="1.1"
   id="svg8"
   inkscape:version="1.0beta2 (2b71d25, 2019-12-03)"
   sodipodi:docname="logo.svg">
  <defs
     id="defs2" />
  <sodipodi:namedview
     id="base"
     pagecolor="#ffffff"
     bordercolor="#666666"
     borderopacity="1.0"
     inkscape:pageopacity="0.0"
     inkscape:pageshadow="2"
     inkscape:zoom="0.63145869"
     inkscape:cx="161.40723"
     inkscape:cy="248.35363"
     inkscape:document-units="mm"
     inkscape:current-layer="layer1"
     inkscape:document-rotation="0"
     showgrid="false"
     inkscape:window-width="1440"
     inkscape:window-height="774"
     inkscape:window-x="0"
     inkscape:window-y="23"
     inkscape:window-maximized="0" />
  <metadata
     id="metadata5">
    <rdf:RDF>
      <cc:Work
         rdf:about="">
        <dc:format>image/svg+xml</dc:format>
        <dc:type
           rdf:resource="http://purl.org/dc/dcmitype/StillImage" />
        <dc:title />
      </cc:Work>
    </rdf:RDF>
  </metadata>
  <g
     inkscape:label="Capa 1"
     inkscape:groupmode="layer"
     id="layer1"
     transform="translate(-7.0706949,-135.81944)">
    <g
       id="#000000ff"
       transform="matrix(0.35277779,0,0,0.35277779,17.638886,135.81944)"
       style="fill:#ffffff;fill-opacity:1">
      <path
         id="path10"
         d="m 0,0 h 10 c 0,6.67 0,13.33 0,20 16.67,0 33.33,0 50,0 0,16.67 0,33.33 0,50 H 0 V 0 m 10,30 c 0,10 0,20 0,30 13.33,0 26.67,0 40,0 0,-10 0,-20 0,-30 -13.33,0 -26.67,0 -40,0 z"
         opacity="1.00"
         fill="#000000"
         inkscape:connector-curvature="0"
         style="fill:#ffffff;fill-opacity:1" />
      <path
         id="path12"
         d="m 70,20 c 20,0 40,0 60,0 0,2.5 0,7.5 0,10 -16.67,0 -33.33,0 -50,0 0,13.33 0,26.67 0,40 H 70 c 0,-16.67 0,-33.33 0,-50 z"
         opacity="1.00"
         fill="#000000"
         inkscape:connector-curvature="0"
         style="fill:#ffffff;fill-opacity:1" />
      <path
         id="path14"
         d="m 140,20 c 2.5,0 7.5,0 10,0 0,13.33 0,26.67 0,40 13.33,0 26.66,0 40,0 0,-13.33 0,-26.67 0,-40 2.5,0 7.5,0 10,0 0,16.67 0,33.33 0,50 h -60 c 0,-16.67 0,-33.33 0,-50 z"
         opacity="1.00"
         fill="#000000"
         inkscape:connector-curvature="0"
         style="fill:#ffffff;fill-opacity:1" />
      <path
         id="path16"
         d="m 210,20 c 20,0 40,0 60,0 0,16.67 0,33.33 0,50 h -10 c 0,-13.33 0,-26.67 0,-40 -13.34,0 -26.67,0 -40,0 0,13.33 0,26.67 0,40 h -10 c 0,-16.67 0,-33.33 0,-50 z"
         opacity="1.00"
         fill="#000000"
         inkscape:connector-curvature="0"
         style="fill:#ffffff;fill-opacity:1" />
      <path
         id="path18"
         d="m 280,20 c 20,0 40,0 60,0 0,16.67 0,33.33 0,50 h -10 c 0,-13.33 0,-26.67 0,-40 -13.34,0 -26.67,0 -40,0 0,13.33 0,26.67 0,40 h -10 c 0,-16.67 0,-33.33 0,-50 z"
         opacity="1.00"
         fill="#000000"
         inkscape:connector-curvature="0"
         style="fill:#ffffff;fill-opacity:1" />
      <path
         id="path20"
         d="m 350,20 c 20.33,0 40.66,0 61,0 0,10 0,20 0,30 -17,0 -34,0 -51,0 0,2.5 0,7.5 0,10 17,0 34,0 51,0 0.01,3.33 -0.03,6.66 0,10 h -61 c 0,-16.67 0,-33.33 0,-50 m 10,10 c 0,2.5 0,7.5 0,10 13.33,0 26.66,0 40,0 0,-2.5 0,-7.5 0,-10 -13.34,0 -26.67,0 -40,0 z"
         opacity="1.00"
         fill="#000000"
         inkscape:connector-curvature="0"
         style="fill:#ffffff;fill-opacity:1" />
      <path
         id="path22"
         d="m 420,20 c 2.75,0 8.25,0 11,0 0,16.67 0,33.33 0,50 h -11 c 0,-16.67 0,-33.33 0,-50 z"
         opacity="1.00"
         fill="#000000"
         inkscape:connector-curvature="0"
         style="fill:#ffffff;fill-opacity:1" />
      <path
         id="path24"
         d="m 440,20 c 20,0 40,0 60,0 v 10 c -16.67,0 -33.34,0 -50,0 0,2.5 0,7.5 0,10 16.66,0 33.33,0 50,0 v 30 h -60 c 0.01,-3.33 -0.03,-6.67 0,-10 16.66,0 33.33,0 50,0 0,-2.5 0,-7.5 0,-10 -16.67,0 -33.34,0 -50,0 -0.01,-10 -0.01,-20 0,-30 z"
         opacity="1.00"
         fill="#000000"
         inkscape:connector-curvature="0"
         style="fill:#ffffff;fill-opacity:1" />
    </g>
    <rect
       y="135.81944"
       x="7.0706949"
       height="24.79565"
       width="3.5227306"
       id="rect44-7-0-0"
       style="fill:#f45d22;fill-opacity:1;fill-rule:evenodd;stroke-width:0.183507" />
  </g>
</svg>
